# xmcd
# 
# Track frame offsets:
#     150
#     14439
#     59976
#     105029
#     136155
#     166081
# 
# Disc length: 2746
# 
# Revision: 5
# Processed by: cddbd v1.5.2PL0 Copyright (c) Steve Scherf et al.
# Submitted via: fre:ac v1.0.17
# 
DISCID=440ab806
DTITLE=Joe Zawinul and The Zawinul Syndicate - 75th [CD 1]
DYEAR=2012
DGENRE=Jazz
TTITLE0=Introduction To Orient Express
TTITLE1=Orient Express
TTITLE2=Madagascar
TTITLE3=Scarlet Woman
TTITLE4=Zanza II
TTITLE5=Café Andalusia
EXTD=
EXTT0=
EXTT1=
EXTT2=
EXTT3=
EXTT4=
EXTT5=
PLAYORDER=
